<mxfile host="app.diagrams.net" modified="2024-05-14T07:29:42.748Z" agent="Mozilla/5.0 (Windows NT 10.0; Win64; x64) AppleWebKit/537.36 (KHTML, like Gecko) Chrome/123.0.0.0 Safari/537.36" version="24.4.0" etag="U42yxPlhmHFYLohG1wSe" type="github">
  <diagram name="Page-1" id="_nz9mpPniKxICZYB20z0">
    <mxGraphModel>
      <root>
        <mxCell id="0" />
        <mxCell id="1" parent="0" />
      </root>
    </mxGraphModel>
  </diagram>
</mxfile>
